HIERARCHY
ROOT joint_0
{
	OFFSET 0.000000 0.000000 0.000000
	CHANNELS 6 Xposition Yposition Zposition Zrotation Yrotation Xrotation 
	JOINT joint_1
	{
		OFFSET 14.113007 -2.961990 123.953979
		CHANNELS 3 Zrotation Yrotation Xrotation
		JOINT joint_2
		{
			OFFSET 0.764000 -2.434006 113.871948
			CHANNELS 3 Zrotation Yrotation Xrotation
			JOINT joint_3
			{
				OFFSET 0.186996 -2.169998 113.753052
				CHANNELS 3 Zrotation Yrotation Xrotation
				JOINT joint_4
				{
					OFFSET 16.096001 -2.720001 160.853027
					CHANNELS 3 Zrotation Yrotation Xrotation
					JOINT joint_5
					{
						OFFSET 34.392006 -0.188995 92.567017
						CHANNELS 3 Zrotation Yrotation Xrotation
						End Site
						{
							OFFSET 0.000000 0.000000 0.000000
						}
					}
				}
				JOINT joint_6
				{
					OFFSET 9.183998 -36.684006 89.597046
					CHANNELS 3 Zrotation Yrotation Xrotation
					JOINT joint_7
					{
						OFFSET 0.486000 -164.365997 -28.984009
						CHANNELS 3 Zrotation Yrotation Xrotation
						JOINT joint_8
						{
							OFFSET 38.899002 -34.967010 -291.651978
							CHANNELS 3 Zrotation Yrotation Xrotation
							JOINT joint_9
							{
								OFFSET 41.714005 -45.890991 -258.857056
								CHANNELS 3 Zrotation Yrotation Xrotation
								End Site
								{
									OFFSET 0.000000 0.000000 0.000000
								}
							}
						}
					}
				}
				JOINT joint_10
				{
					OFFSET 8.867004 33.650002 90.817993
					CHANNELS 3 Zrotation Yrotation Xrotation
					JOINT joint_11
					{
						OFFSET 0.018997 164.299999 -29.368042
						CHANNELS 3 Zrotation Yrotation Xrotation
						JOINT joint_12
						{
							OFFSET 29.440994 30.887997 -293.216919
							CHANNELS 3 Zrotation Yrotation Xrotation
							JOINT joint_13
							{
								OFFSET 46.174011 54.490005 -256.422058
								CHANNELS 3 Zrotation Yrotation Xrotation
								End Site
								{
									OFFSET 0.000000 0.000000 0.000000
								}
							}
						}
					}
				}
			}
		}
	}
	JOINT joint_14
	{
		OFFSET -2.264000 -89.466995 -116.150024
		CHANNELS 3 Zrotation Yrotation Xrotation
		JOINT joint_15
		{
			OFFSET -16.400993 -17.452988 -493.781982
			CHANNELS 3 Zrotation Yrotation Xrotation
			JOINT joint_16
			{
				OFFSET -50.497004 -13.404022 -424.754013
				CHANNELS 3 Zrotation Yrotation Xrotation
				JOINT joint_17
				{
					OFFSET 198.546007 -19.341003 -89.309000
					CHANNELS 3 Zrotation Yrotation Xrotation
					End Site
					{
						OFFSET 0.000000 0.000000 0.000000
					}
				}
			}
		}
	}
	JOINT joint_18
	{
		OFFSET -0.867996 96.016006 -110.817993
		CHANNELS 3 Zrotation Yrotation Xrotation
		JOINT joint_19
		{
			OFFSET -10.130997 24.658998 -493.645020
			CHANNELS 3 Zrotation Yrotation Xrotation
			JOINT joint_20
			{
				OFFSET -48.871004 19.434999 -424.714005
				CHANNELS 3 Zrotation Yrotation Xrotation
				JOINT joint_21
				{
					OFFSET 195.579996 24.926001 -94.327003
					CHANNELS 3 Zrotation Yrotation Xrotation
					End Site
					{
						OFFSET 0.000000 0.000000 0.000000
					}
				}
			}
		}
	}
}
MOTION
Frames: 13
Frame Time: 0.016667
-3167.915283 995.500732 1135.540039 2.463575 -0.422041 0.745880 -1.375879 -4.095651 2.424464 -0.530661 0.616601 -0.625529 -0.499316 -0.913672 0.362748 -0.379518 -4.565644 0.979008 0.000000 0.000000 0.000000 -2.657084 5.613846 -2.557321 -0.716343 5.260913 -4.315617 1.438981 -5.932394 2.258573 0.000000 0.000000 0.000000 -3.078658 3.936149 1.273745 1.168234 4.688211 0.918879 1.261932 3.662966 2.445692 0.000000 0.000000 0.000000 4.921263 -12.884429 -10.697756 3.914616 40.854004 15.940056 13.916078 -3.214823 5.156527 0.000000 0.000000 0.000000 -3.191876 7.181334 -0.453450 -4.050013 2.708196 -2.987227 -4.709349 -6.135677 -1.396184 0.000000 0.000000 0.000000 
-3155.437744 995.145020 1135.909058 2.490081 -0.270499 0.916904 -1.531047 -4.273516 2.431239 -0.493652 0.614557 -0.609237 -0.448919 -0.952242 0.364219 -0.365635 -4.500973 0.940328 0.000000 0.000000 0.000000 -2.830470 5.559065 -2.461745 -0.574859 5.149332 -4.839106 2.120242 -8.792209 3.318680 0.000000 0.000000 0.000000 -2.967519 3.820646 1.334648 1.004696 4.525213 1.377798 0.863827 2.524023 1.670941 0.000000 0.000000 0.000000 4.850001 -15.226179 -12.207090 4.237023 44.500600 16.484729 15.644070 -1.464653 5.940449 0.000000 0.000000 0.000000 -3.196715 7.694095 -0.530155 -4.265818 2.660223 -3.015449 -4.913583 -5.907037 -1.503485 0.000000 0.000000 0.000000 
-3142.486328 994.555725 1136.590942 2.268479 -0.179977 1.063464 -1.570155 -4.398312 2.477612 -0.409067 0.603877 -0.587709 -0.358134 -0.973885 0.367729 -0.362471 -4.523744 0.927437 0.000000 0.000000 0.000000 -2.890580 5.601920 -2.259000 -0.428960 5.154227 -5.429383 2.870975 -12.247526 4.261865 0.000000 0.000000 0.000000 -2.754131 3.764023 1.416072 0.777743 4.391153 2.039077 0.296736 0.876925 0.571002 0.000000 0.000000 0.000000 4.073640 -17.404274 -13.066848 3.800690 47.079353 15.088417 14.383705 -1.011362 5.496488 0.000000 0.000000 0.000000 -3.186981 8.217897 -0.666781 -4.428458 2.826025 -2.923447 -5.054905 -5.607215 -1.591532 0.000000 0.000000 0.000000 
-3129.112305 993.671692 1137.526001 1.844420 -0.116379 1.174389 -1.530476 -4.521414 2.576911 -0.291494 0.607132 -0.574585 -0.237211 -0.988575 0.370190 -0.361835 -4.595335 0.918911 0.000000 0.000000 0.000000 -2.868838 5.702957 -1.964218 -0.288462 5.234550 -6.054041 3.658835 -16.145984 5.138179 0.000000 0.000000 0.000000 -2.453562 3.763120 1.528548 0.500431 4.288577 2.828366 -0.402635 -1.177066 -0.808280 0.000000 0.000000 0.000000 2.984202 -19.471822 -13.420895 2.957803 48.536258 12.528618 11.285036 -1.317780 4.295508 0.000000 0.000000 0.000000 -3.158105 8.723042 -0.816355 -4.535058 3.171693 -2.781336 -5.139190 -5.249266 -1.661313 0.000000 0.000000 0.000000 
-3115.155273 992.317444 1138.616943 1.382513 -0.083038 1.266071 -1.463767 -4.615933 2.660796 -0.202818 0.617656 -0.566600 -0.147736 -1.003405 0.376051 -0.368122 -4.665692 0.930024 0.000000 0.000000 0.000000 -2.795940 5.827295 -1.752477 -0.135793 5.351001 -6.388478 4.389365 -19.971018 5.912403 0.000000 0.000000 0.000000 -2.188173 3.845282 1.779697 0.206589 4.273736 3.407961 -1.118120 -3.329902 -2.243982 0.000000 0.000000 0.000000 2.133699 -21.177987 -13.555908 2.229894 48.493682 9.941975 8.309739 -1.792329 3.119595 0.000000 0.000000 0.000000 -3.148301 9.108970 -0.916449 -4.579084 3.872216 -2.734583 -5.191990 -4.900008 -1.715916 0.000000 0.000000 0.000000 
-3100.522949 990.417603 1140.016968 0.933268 -0.090772 1.360353 -1.384066 -4.650405 2.691053 -0.179525 0.635906 -0.574538 -0.127585 -1.027674 0.383301 -0.389273 -4.733784 0.985384 0.000000 0.000000 0.000000 -2.626566 5.996857 -1.724297 0.060081 5.531123 -6.215069 5.052642 -23.665731 6.528624 0.000000 0.000000 0.000000 -1.984233 4.033803 2.298113 -0.091769 4.377527 3.559154 -1.797916 -5.471943 -3.634847 0.000000 0.000000 0.000000 1.633041 -22.389360 -13.591734 1.691469 46.752548 7.542124 5.951294 -2.206802 2.173516 0.000000 0.000000 0.000000 -3.165962 9.418339 -0.981656 -4.560163 4.857475 -2.785298 -5.215348 -4.501284 -1.763766 0.000000 0.000000 0.000000 
-3085.307861 988.047546 1141.572021 0.480653 -0.141699 1.440959 -1.284302 -4.636038 2.698005 -0.196858 0.650129 -0.590014 -0.152295 -1.051723 0.394770 -0.419846 -4.797875 1.068337 0.000000 0.000000 0.000000 -2.407832 6.196965 -1.790834 0.296455 5.753111 -5.737579 5.689272 -27.321668 7.088689 0.000000 0.000000 0.000000 -1.810816 4.301588 2.970695 -0.385417 4.570156 3.481240 -2.472511 -7.758594 -5.052953 0.000000 0.000000 0.000000 1.230504 -23.105027 -13.450291 1.101569 43.460223 5.099710 3.772065 -2.418474 1.301858 0.000000 0.000000 0.000000 -3.216250 9.620097 -0.995871 -4.480977 6.182872 -2.938014 -5.225351 -4.050038 -1.811513 0.000000 0.000000 0.000000 
-3069.624756 985.257446 1142.715942 0.055307 -0.213681 1.446580 -1.172547 -4.641343 2.753853 -0.215306 0.662387 -0.595000 -0.179989 -1.064936 0.420680 -0.444237 -4.806242 1.133208 0.000000 0.000000 0.000000 -2.308187 6.357532 -1.899259 0.561325 5.917660 -5.202997 6.313920 -30.691121 7.822751 0.000000 0.000000 0.000000 -1.703954 4.606080 3.572620 -0.643096 4.822260 3.425953 -3.150211 -10.300277 -6.548920 0.000000 0.000000 0.000000 0.959854 -23.334657 -13.156549 0.563135 39.174115 3.049531 2.140358 -2.320318 0.663828 0.000000 0.000000 0.000000 -3.312933 9.500085 -0.817654 -4.325283 8.202025 -3.348030 -5.270644 -3.654123 -1.864042 0.000000 0.000000 0.000000 
-3053.477295 982.054260 1143.624023 -0.375136 -0.189561 1.230290 -1.062112 -4.821992 3.126620 -0.229167 0.708996 -0.684275 -0.203398 -1.074514 0.463419 -0.455588 -4.742504 1.161283 0.000000 0.000000 0.000000 -2.438988 6.452630 -2.055340 0.878557 5.974331 -4.687150 6.958128 -33.694630 8.790833 0.000000 0.000000 0.000000 -1.689727 4.973078 3.995802 -0.827449 5.172689 3.483246 -3.813484 -13.146077 -8.134922 0.000000 0.000000 0.000000 0.892925 -23.065069 -12.491239 0.178437 33.434727 1.453565 1.147316 -1.960068 0.295578 0.000000 0.000000 0.000000 -3.381965 8.939666 -0.291780 -3.997252 10.949497 -4.004891 -5.289384 -3.229702 -1.902637 0.000000 0.000000 0.000000 
-3036.862061 978.432068 1144.119995 -0.605967 -0.246891 0.931703 -0.978900 -4.926940 3.571365 -0.309428 0.706206 -0.789967 -0.297810 -1.072512 0.518992 -0.461298 -4.623987 1.172917 0.000000 0.000000 0.000000 -2.687722 6.515864 -2.263550 1.239168 5.979623 -4.106123 7.616744 -36.436138 9.950689 0.000000 0.000000 0.000000 -1.745105 5.361950 4.312274 -0.925856 5.580671 3.593970 -4.430923 -16.250368 -9.811794 0.000000 0.000000 0.000000 0.876818 -22.032034 -11.710130 -0.075306 26.326442 0.207330 0.541779 -0.780697 0.160232 0.000000 0.000000 0.000000 -3.521683 8.112014 0.472355 -3.656817 14.348596 -4.861347 -5.455177 -2.597513 -2.023347 0.000000 0.000000 0.000000 
-3019.883301 974.415588 1143.114014 -0.469860 -0.656932 0.800789 -0.923492 -4.671345 3.625426 -0.446933 0.595432 -0.742869 -0.450072 -1.026532 0.577500 -0.471199 -4.442749 1.192264 0.000000 0.000000 0.000000 -2.885743 6.564622 -2.485268 1.558845 5.994007 -3.439083 8.229483 -38.950807 11.372530 0.000000 0.000000 0.000000 -1.835723 5.637078 4.573155 -0.954380 5.903985 3.804009 -5.007401 -19.586334 -11.657465 0.000000 0.000000 0.000000 0.800243 -20.370069 -11.388498 -0.258968 20.004232 -0.507310 0.105326 1.073179 0.161629 0.000000 0.000000 0.000000 -3.951114 7.109811 1.344079 -3.582735 18.587880 -6.096048 -6.148636 -1.595445 -2.401633 0.000000 0.000000 0.000000 
-3002.145752 969.869080 1140.131958 0.003897 -1.442644 0.739054 -0.882979 -4.191419 3.524747 -0.592021 0.493349 -0.677161 -0.604354 -0.922845 0.619487 -0.487695 -4.162252 1.224675 0.000000 0.000000 0.000000 -3.063591 6.625406 -2.794210 1.825875 6.042602 -2.537923 8.825366 -41.292528 13.483651 0.000000 0.000000 0.000000 -1.993402 5.787448 4.805651 -0.925470 6.140790 4.138441 -5.573092 -23.279896 -13.737052 0.000000 0.000000 0.000000 0.747220 -18.168245 -11.517601 -0.432603 15.341489 -0.637136 -0.233114 2.676928 0.179928 0.000000 0.000000 0.000000 -4.779298 5.843076 2.617585 -3.851952 23.789560 -8.040241 -7.672880 0.529718 -3.238578 0.000000 0.000000 0.000000 
-2984.044922 964.928284 1135.646973 0.644464 -2.414294 0.524981 -0.847097 -3.643645 3.643463 -0.724485 0.432942 -0.727168 -0.742802 -0.793886 0.650474 -0.509785 -3.824121 1.271247 0.000000 0.000000 0.000000 -3.195116 6.649493 -3.114547 2.027564 6.077895 -1.543515 9.352581 -43.392443 15.897334 0.000000 0.000000 0.000000 -2.178294 5.800526 4.965235 -0.840850 6.275295 4.598029 -6.107942 -27.136110 -16.045926 0.000000 0.000000 0.000000 0.746136 -15.721271 -11.644708 -0.595785 11.954040 -0.417242 -0.499769 3.773826 0.177568 0.000000 0.000000 0.000000 -5.828065 4.335280 4.350680 -4.324361 29.506804 -10.383056 -10.024698 3.873441 -4.522633 0.000000 0.000000 0.000000 
